<?xml version="1.0" encoding="utf-8"?>
<!-- Generator: Adobe Illustrator 21.0.0, SVG Export Plug-In . SVG Version: 6.00 Build 0)  -->
<svg version="1.1" id="Layer_1" xmlns="http://www.w3.org/2000/svg" xmlns:xlink="http://www.w3.org/1999/xlink" x="0px" y="0px"
	 viewBox="0 0 1998.9 572.8" style="enable-background:new 0 0 1998.9 572.8;" xml:space="preserve">
<style type="text/css">
	.st0{fill:#003B4C;}
</style>
<g>
	<g>
		<path class="st0" d="M225.4,395.6c-58.6,0-106.1-47.5-106.1-106.1c0-58.6,47.5-106.1,106.1-106.1c58.6,0,106.1,47.5,106.1,106.1
			C331.4,348.1,283.9,395.6,225.4,395.6 M225.4,110c-99.1,0-179.5,80.3-179.5,179.5c0,99.1,80.3,179.5,179.5,179.5
			c99.1,0,179.5-80.4,179.5-179.5C404.8,190.4,324.5,110,225.4,110"/>
		<path class="st0" d="M543,178.3h-29.5v92.1h28.9c27.4,0,47.6-20.7,47.6-48.6C590.1,196.9,571.5,178.3,543,178.3 M618,454.5
			c-51.2-89-69.3-123.1-80.7-127.7h-23.8v127.7h-79.1V113.7h106.5c93.6,0,126.7,46,126.7,99.3c0,43.4-30.5,73.4-60.5,87.4v0.5
			c18.6,10.9,50.2,66.7,100.4,153.6H618z"/>
	</g>
	<rect x="738.3" y="113.7" class="st0" width="79.1" height="340.8"/>
	<g>
		<path class="st0" d="M1205.5,289.2c0-58.6,47.5-106.1,106.1-106.1c58.6,0,106.8,47.5,106.8,106.1c0,42.5-25.1,80-61.3,96.9
			c-18.3-6.3-37.3-16.4-54.1-26.7c-32.1-19.7-62.2-30.5-93.2-38.7C1207,311.2,1205.5,299.6,1205.5,289.2 M1785.8,113.3v220.8
			c-9.8-14.5-167.6-220.8-167.6-220.8h-79.1v181.6c0,57.1-54.7,99.2-85.4,103.6c23.3-30.3,37.2-68.2,37.2-109.4
			c0-99.1-80.4-179.5-179.5-179.5c-99.1,0-179.5,80.3-179.5,179.5c0,6.2,0.3,14.5,1,20.6c-46.4-1.4-87.6,5.2-120.5,16.5l126.8-212.9
			H858V183H1007l-160.8,271h91.5c0,0,137.9-131.8,326-29.1c48.3,26.3,101.3,55,163,55c127.1,0,190.5-115.1,190.4-176.4h0.1v-67.8
			c11.4,15,169.7,218.3,169.7,218.3h77.5V113.3H1785.8z"/>
		<path class="st0" d="M1920.5,130.8c-1.2-0.4-2.8-0.7-4.9-0.7h-2.1v9.4h3.3c2,0,3.5-0.4,4.6-1.2c1.1-0.8,1.7-2.1,1.7-3.8
			C1923.1,132.8,1922.2,131.5,1920.5,130.8 M1905,156.8v-32.3c2,0,5,0,9,0c4,0,6.2,0,6.7,0.1c2.6,0.2,4.7,0.7,6.4,1.7
			c2.9,1.6,4.3,4.2,4.3,7.7c0,2.7-0.8,4.7-2.3,5.9c-1.5,1.2-3.4,1.9-5.6,2.2c2,0.4,3.6,1.1,4.6,1.9c1.9,1.5,2.8,4,2.8,7.3v2.9
			c0,0.3,0,0.6,0.1,0.9c0,0.3,0.1,0.6,0.2,1l0.3,0.9h-8.1c-0.3-1-0.4-2.5-0.5-4.5c-0.1-2-0.3-3.3-0.5-4c-0.4-1.1-1.2-1.9-2.4-2.4
			c-0.6-0.3-1.6-0.4-2.9-0.5l-1.9-0.1h-1.8v11.4H1905z M1900.7,123.7c-4.6,4.7-7,10.4-7,16.9c0,6.8,2.3,12.5,7.1,17.2
			c4.7,4.7,10.4,7.1,17,7.1c6.6,0,12.3-2.4,17-7.1c4.7-4.8,7-10.5,7-17.2c0-6.5-2.3-12.1-7-16.9c-4.7-4.9-10.4-7.3-17-7.3
			C1911.1,116.4,1905.4,118.8,1900.7,123.7 M1938.2,161.5c-5.7,5.5-12.5,8.2-20.4,8.2c-8.2,0-15.1-2.8-20.7-8.4
			c-5.6-5.6-8.4-12.5-8.4-20.7c0-8.5,3-15.6,9.1-21.2c5.7-5.3,12.4-7.9,20.1-7.9c8,0,14.9,2.9,20.6,8.6c5.7,5.7,8.6,12.6,8.6,20.6
			C1947,148.9,1944.1,155.8,1938.2,161.5"/>
	</g>
</g>
</svg>
